<svg fill="none" height="428" viewBox="0 0 987 428" width="987" xmlns="http://www.w3.org/2000/svg"><path d="m172.188.392212-172.188 99.843788v198.775l172.192 99.846 172.194-99.846v-198.775l-172.19-99.843788z" fill="#001c0f"/><path clip-rule="evenodd" d="m172.192 21.2317c-51.392 29.8027-102.7743 59.5988-154.168 89.4013v177.983c51.3915 29.8 102.779 59.599 154.168 89.399 51.391-29.8 102.779-59.599 154.168-89.399v-177.983c-51.392-29.8025-102.774-59.5986-154.168-89.4013z" fill-rule="evenodd" stroke="#66be5d" stroke-miterlimit="2" stroke-width=".001731"/><path d="m130.107 236.861v-74.473h-14.82l-17.1862 36.738-17.4342-36.738h-14.9446v74.473h13.0757v-50.811l14.8204 32.503h8.5929l14.821-32.627v50.935zm77.96-62.02v-12.453h-53.427v12.453h20.175v62.02h13.075v-62.02zm69.367 62.02v-12.453h-33.002v-62.02h-13.078v74.473z" fill="#66be5d"/><g fill="#023c50"><path d="m477.79 408.986v-11.971c0-1.346-.319-2.69-1.086-3.714-.513-.703-2.109-2.428-3.066-3.13-1.151-.832-2.816-1.279-4.355-1.279h-4.994c-1.792 0-3.65 1.279-4.931 2.427v-12.858h-4.984v33.214l-.447 5.113h4.985l.255-2.364c1.28 1.213 3.202 2.683 5.122 2.683h4.994c1.539 0 3.204-.51 4.355-1.341.957-.703 2.553-2.364 3.066-3.066.767-1.089 1.086-2.37 1.086-3.714zm-4.984-.128c0 .385-.064.64-.128.705-.513.895-1.794 2.177-2.69 2.689-.192.064-.383.19-.769.19h-4.738c-1.281 0-4.482-2.751-5.123-3.649v-11.652c.641-.896 3.778-3.585 5.123-3.585h4.738c.386 0 .577.064.769.129.896.512 2.177 1.855 2.69 2.753.064.064.128.319.128.703zm35.45-19.645h-5.119l-7.168 21.438-7.167-21.438h-5.377l9.471 27.581h.96l-3.711 11.065h5.441zm55.672 27.575v-38.327h-6.52l-10.307 20.89-10.242-20.89h-6.649v38.327h5.177v-30.468l9.923 20.571h3.456l10.052-20.571v30.468zm32.895-6.265-4.664-1.539-.384.705c-.447.833-1.729 2.115-2.625 2.563-.192.064-.383.19-.769.19h-6.66c-1.217 0-2.946-1.857-3.456-2.753-.064-.064-.128-.322-.128-.705v-3.844h18.494v-8.252c0-1.281-.255-2.563-1.022-3.651-.51-.703-2.109-2.364-3.067-3.066-1.15-.832-2.879-1.279-4.416-1.279h-6.405c-1.536 0-3.265.447-4.416 1.279-.957.702-2.556 2.363-3.068 3.066-.765 1.024-1.084 2.305-1.084 3.651v12.225c0 1.345.319 2.627 1.084 3.651.512.703 2.111 2.363 3.068 3.066 1.151.829 2.88 1.277 4.416 1.277h6.534c1.536 0 3.201-.448 4.352-1.277 1.596-1.086 3.385-3.388 4.216-5.307zm-5.176-9.984h-13.51v-3.522c0-.386.064-.641.128-.705.51-.898 2.239-2.756 3.456-2.756h6.341c.383 0 .576.129.769.193.896.512 2.242 1.665 2.754 2.563.062.128.062.576.062.705zm36.919 16.249-.448-5.113v-33.214h-4.984v12.858c-1.281-1.148-3.139-2.427-4.93-2.427h-4.995c-1.539 0-3.203.447-4.354 1.279-.958.702-2.556 2.427-3.066 3.13-.767 1.024-1.087 2.368-1.087 3.714v11.971c0 1.344.32 2.625 1.087 3.714.51.702 2.108 2.363 3.066 3.066 1.151.831 2.815 1.341 4.354 1.341h4.995c1.92 0 3.842-1.47 5.121-2.683l.255 2.364zm-5.432-7.93c-.64.897-3.842 3.584-5.123 3.584h-4.74c-.383 0-.574-.126-.767-.19-.898-.512-2.177-1.794-2.689-2.689-.064-.065-.129-.32-.129-.705v-11.717c0-.384.065-.639.129-.703.512-.898 1.791-2.241 2.689-2.753.193-.065.384-.129.767-.129h4.74c1.346 0 4.483 2.689 5.123 3.649zm19.574-30.781h-5.496v5.432h5.496zm-.255 11.136h-4.984v27.575h4.984zm32.062 27.575-.512-5.048v-14.852c0-1.281-.255-2.627-1.022-3.716-.512-.702-2.109-2.299-3.069-3.001-1.15-.832-2.877-1.279-4.416-1.279h-5.89c-1.537 0-3.202.383-4.419 1.214-1.341.958-3.449 3.514-4.216 5.372l4.664 1.41s.512-.705.834-1.088c.64-.834 1.791-2.244 2.944-2.244h6.019c.386 0 .576.129.769.193.896.512 2.242 1.665 2.754 2.563.064.128.064.512.064.64v3.075h-10.373c-1.537 0-3.202.448-4.352 1.28-.96.702-2.492 2.299-3.004 3.001-.767 1.025-1.086 2.306-1.086 3.652v1.217c0 1.346.319 2.627 1.086 3.649.512.703 2.044 2.301 3.004 3.004 1.15.829 2.815 1.277 4.352 1.277h5.635c1.792 0 3.714-1.406 4.993-2.492l.257 2.173zm-5.496-7.675c-.896 1.281-3.266 2.691-4.354 3.203-.129.064-.322.126-.577.126h-5.378c-.386 0-.576-.126-.769-.19-.896-.512-2.113-1.603-2.625-2.499-.064-.064-.129-.257-.129-.64v-1.089c0-.386.065-.576.129-.641.512-.898 1.729-2.115 2.625-2.627.193-.064.383-.128.769-.128h10.309zm53.045 7.675v-4.984h-17.919v-33.343h-5.239v38.327zm30.462 0-.513-5.048v-14.852c0-1.281-.255-2.627-1.022-3.716-.51-.702-2.108-2.299-3.066-3.001-1.15-.832-2.88-1.279-4.416-1.279h-5.893c-1.536 0-3.201.383-4.418 1.214-1.341.958-3.45 3.514-4.217 5.372l4.667 1.41s.512-.705.831-1.088c.641-.834 1.794-2.244 2.947-2.244h6.019c.383 0 .576.129.767.193.898.512 2.241 1.665 2.753 2.563.065.128.065.512.065.64v3.075h-10.374c-1.536 0-3.201.448-4.351 1.28-.958.702-2.492 2.299-3.004 3.001-.765 1.025-1.087 2.306-1.087 3.652v1.217c0 1.346.322 2.627 1.087 3.649.512.703 2.046 2.301 3.004 3.004 1.15.829 2.815 1.277 4.351 1.277h5.636c1.794 0 3.713-1.406 4.995-2.492l.255 2.173zm-5.496-7.675c-.896 1.281-3.266 2.691-4.354 3.203-.129.064-.32.126-.577.126h-5.378c-.384 0-.577-.126-.77-.19-.895-.512-2.112-1.603-2.624-2.499-.065-.064-.129-.257-.129-.64v-1.089c0-.386.064-.576.129-.641.512-.898 1.729-2.115 2.624-2.627.193-.064.386-.128.77-.128h10.309zm37.622-.127v-11.971c0-1.346-.32-2.69-1.087-3.714-.51-.703-2.108-2.428-3.066-3.13-1.15-.832-2.815-1.279-4.352-1.279h-4.995c-1.793 0-3.651 1.279-4.93 2.427v-12.858h-4.984v33.214l-.448 5.113h4.984l.255-2.364c1.281 1.213 3.201 2.683 5.123 2.683h4.995c1.537 0 3.202-.51 4.352-1.341.958-.703 2.556-2.364 3.066-3.066.767-1.089 1.087-2.37 1.087-3.714zm-4.984-.128c0 .385-.062.64-.127.705-.512.895-1.793 2.177-2.689 2.689-.193.064-.385.19-.769.19h-4.74c-1.279 0-4.48-2.751-5.121-3.649v-11.652c.641-.896 3.778-3.585 5.121-3.585h4.74c.384 0 .576.064.769.129.896.512 2.177 1.855 2.689 2.753.065.064.127.319.127.703zm55.989-.384v-5.059c0-2.818-1.15-4.033-3.066-5.822 1.916-1.789 3.066-3.002 3.066-5.804v-4.904c0-1.275-.255-2.611-1.022-3.695-.512-.768-2.491-2.685-3.387-3.324-1.151-.831-2.751-1.405-4.288-1.405h-18.046v38.327h18.046c1.472 0 3.137-.512 4.288-1.342.896-.64 2.875-2.62 3.387-3.387.703-1.089 1.022-2.306 1.022-3.585zm-5.238-16.813c0 .319-.065.638-.129.7-.448.891-2.177 2.802-3.33 2.802h-12.805v-11.719h12.741c1.217 0 2.882 1.976 3.394 2.867.064.064.129.319.129.636zm0 16.684c0 .32-.065.577-.129.641-.512.896-2.177 2.818-3.394 2.818h-12.741v-11.719h12.805c.319 0 .577 0 .641.062.896.45 2.177 1.794 2.689 2.691.064.065.129.32.129.641zm36.852 8.443-.512-5.048v-14.852c0-1.281-.255-2.627-1.022-3.716-.51-.702-2.108-2.299-3.066-3.001-1.15-.832-2.88-1.279-4.416-1.279h-5.893c-1.536 0-3.201.383-4.418 1.214-1.341.958-3.45 3.514-4.217 5.372l4.667 1.41s.512-.705.831-1.088c.641-.834 1.794-2.244 2.947-2.244h6.019c.383 0 .576.129.767.193.898.512 2.241 1.665 2.753 2.563.064.128.064.512.064.64v3.075h-10.373c-1.536 0-3.201.448-4.352 1.28-.957.702-2.491 2.299-3.004 3.001-.764 1.025-1.086 2.306-1.086 3.652v1.217c0 1.346.322 2.627 1.086 3.649.513.703 2.047 2.301 3.004 3.004 1.151.829 2.816 1.277 4.352 1.277h5.636c1.793 0 3.713-1.406 4.995-2.492l.255 2.173zm-5.496-7.675c-.895 1.281-3.265 2.691-4.354 3.203-.126.064-.319.126-.576.126h-5.378c-.384 0-.577-.126-.77-.19-.895-.512-2.112-1.603-2.625-2.499-.064-.064-.128-.257-.128-.64v-1.089c0-.386.064-.576.128-.641.513-.898 1.73-2.115 2.625-2.627.193-.064.386-.128.77-.128h10.308zm36.091-19.9h-5.119l-7.168 21.438-7.167-21.438h-5.377l9.471 27.581h.96l-3.711 11.065h5.441zm29.563 21.31-4.665-1.539-.383.705c-.448.833-1.729 2.115-2.625 2.563-.193.064-.384.19-.769.19h-6.66c-1.215 0-2.944-1.857-3.456-2.753-.065-.064-.129-.322-.129-.705v-3.844h18.494v-8.252c0-1.281-.255-2.563-1.022-3.651-.51-.703-2.108-2.364-3.066-3.066-1.151-.832-2.88-1.279-4.416-1.279h-6.405c-1.537 0-3.266.447-4.416 1.279-.958.702-2.557 2.363-3.066 3.066-.768 1.024-1.087 2.305-1.087 3.651v12.225c0 1.345.319 2.627 1.087 3.651.509.703 2.108 2.363 3.066 3.066 1.15.829 2.879 1.277 4.416 1.277h6.533c1.537 0 3.202-.448 4.352-1.277 1.596-1.086 3.385-3.388 4.217-5.307zm-5.177-9.984h-13.51v-3.522c0-.386.064-.641.129-.705.512-.898 2.241-2.756 3.456-2.756h6.34c.384 0 .577.129.77.193.895.512 2.239 1.665 2.753 2.563.062.128.062.576.062.705zm35.447-4.999c-.769-1.855-2.815-4.347-4.287-5.369-1.153-.832-2.816-1.279-4.352-1.279h-3.521c-1.855 0-3.775 1.343-5.054 2.556l-.258-2.237h-4.983l.447 5.114v22.463h4.984v-19.776c.641-.96 3.711-3.456 5.057-3.456h3.454c1.536 0 3.137 2.113 3.84 3.456zm28.349 21.248v-19.902c0-1.281-.255-2.561-1.022-3.649-.51-.703-2.109-2.364-3.066-3.066-1.151-.832-2.88-1.279-4.417-1.279h-4.804c-1.791 0-3.713 1.405-4.992 2.556l-.258-2.237h-4.983l.512 5.114v22.463h4.984v-19.902c.64-.834 3.713-3.33 4.93-3.33h4.547c.384 0 .577.064.769.129.896.512 2.24 1.729 2.754 2.625.062.128.062.576.062.702v19.776z"/><path d="m504.327 241.942v-13.49h-51.429v13.49h18.68v55.695h14.184v-55.695zm67.454 55.695v-13.488h-31.362v-14.533h30.326v-13.49h-30.326v-14.184h31.362v-13.49h-45.431v69.185zm64.575-21.678c-1.037 2.306-1.844 3.689-1.844 3.689-1.038 1.729-3.343 4.268-4.611 5.075h-14.069c-2.767-1.614-4.499-4.153-4.499-4.268v-34.363c1.04-1.614 3.346-3.804 4.499-4.611h14.069c3.228 2.19 4.38 4.381 5.764 7.265.115.23.23.461.691 1.614l13.608-3.804c-1.037-2.885-3.576-7.727-4.498-8.879-2.767-3.692-8.072-9.689-15.104-9.689h-15.107c-2.767 0-5.651 1.155-7.495 2.193-2.652 1.614-7.15 6.456-8.533 8.303-1.499 2.19-1.96 4.611-1.96 7.147v34.939c0 2.308.576 4.96 1.96 7.15 1.614 2.191 5.997 6.804 8.417 8.303 1.96 1.153 4.844 2.19 7.611 2.19h15.107c7.032 0 12.452-5.879 15.219-9.801.922-1.153 2.769-4.727 4.383-8.879zm87.522 21.678v-69.185h-14.069v27.789h-23.063v-27.789h-14.067v69.185h14.067v-27.905h23.063v27.905zm109.658 0v-13.606h-30.674v-55.579h-14.067v69.185zm77.603 0-23.871-69.185h-15.567l-23.983 69.185h14.989l4.728-13.26h24.101l4.611 13.26zm-23.871-26.752h-15.567l7.726-22.254zm95.015 10.264v-8.305c0-4.611-1.614-7.262-3.804-9.686 2.075-2.305 3.804-5.187 3.804-9.686v-8.302c0-2.421-.461-5.303-2.075-7.724-1.037-1.386-4.381-4.959-6.112-6.227-2.306-1.614-5.649-2.767-8.764-2.767h-33.669v69.185h33.669c2.885 0 6.458-1.038 8.764-2.652 1.731-1.268 5.075-4.844 6.112-6.343 1.499-2.19 2.075-4.841 2.075-7.493zm-14.066 0c-.923 1.614-2.654 3-3 3h-19.487v-14.648h19.372c.346 0 2.077 1.499 3.115 3.228zm0-27.561c-.807 1.383-2.654 2.884-3 2.884h-19.487v-14.53h19.372c.346 0 2.077 1.499 3.115 3.228z"/><path d="m513.667 170.797v-69.187h-9.455l-18.911 40.475-18.795-40.475h-9.571v69.187h6.456v-62.037l19.604 43.472h4.496l19.718-43.472v62.037zm69.3 0v-6.458h-32.977v-24.905h31.248v-6.458h-31.248v-24.908h32.977v-6.458h-39.666v69.187zm74.836-15.337v-38.398c0-1.959-.346-3.919-1.383-5.535-1.268-1.96-5.766-6.917-7.841-8.185-1.614-1.04-4.038-1.732-5.882-1.732h-30.441v69.187h30.441c1.844 0 4.268-.807 5.882-1.844 2.075-1.268 6.573-5.997 7.841-7.957 1.037-1.614 1.383-3.574 1.383-5.536zm-6.688-38.167v37.937c0 .576-.116 1.037-.346 1.498-1.499 2.654-5.303 6.343-7.15 7.265-.346.231-.922.346-1.498.346h-23.177v-56.271h23.177c.576 0 1.152.115 1.498.346 1.847.922 5.651 4.498 7.15 7.15.23.461.346 1.153.346 1.729zm42.087-15.683h-6.689v69.187h6.689zm72.53 69.187h7.15l-23.179-69.187h-10.377l-23.179 69.187h7.035l5.305-16.028h32.055zm-35.17-22.486 13.144-40.128h1.501l13.26 40.128z"/></g></svg>